<?xml version="1.0" encoding="utf-8"?>
<svg viewBox="0 0 170 170" xmlns="http://www.w3.org/2000/svg">
  <path style="stroke: rgb(0, 0, 0);" d="M 43.479 12.846 C 56.441 25.476 4.761 80.58 1.977 79.052 C 12.838 73.609 23.314 64.816 39.526 46.443 C 72.086 51.185 108.512 48.172 132.412 45.949 C 130.452 73.118 126.765 129.19 133.895 154.645 C 133.895 154.266 122.037 146.057 116.108 149.704 C 125.866 149.735 127.103 159.307 128.954 164.032 C 136.195 165.838 142.061 162.316 143.776 157.609 C 130.938 127.667 140.225 58.32 145.258 43.973 C 145.423 37.714 141.47 34.749 134.388 33.103 C 117.59 44.231 45.455 41.863 45.455 38.044 C 51.133 29.672 61.663 8.429 56.819 9.882 C 49.408 11.035 45.455 7.082 39.526 1.483 L 43.479 12.846 Z"/>
</svg>